<?xml version="1.0" encoding="UTF-8"?>
<svg id="Layer_1" data-name="Layer 1" xmlns="http://www.w3.org/2000/svg" version="1.1" viewBox="0 0 247.28 111.89">
  <defs>
    <style>
      .cls-1 {
        fill: #54565a;
      }

      .cls-1, .cls-2, .cls-3 {
        stroke-width: 0px;
      }

      .cls-2 {
        fill: #f5a800;
      }

      .cls-3 {
        fill: #fff;
      }
    </style>
  </defs>
  <g>
    <g>
      <path class="cls-1" d="M121.84,91.34l.59.15c-.12.49-.35.86-.67,1.11-.32.26-.72.38-1.18.38s-.87-.1-1.17-.29c-.3-.2-.53-.48-.69-.85s-.24-.77-.24-1.2c0-.47.09-.87.27-1.22.18-.35.43-.61.76-.79s.69-.27,1.08-.27c.45,0,.82.11,1.13.34.3.23.52.55.64.96l-.58.14c-.1-.32-.25-.56-.45-.71-.2-.15-.44-.22-.74-.22-.34,0-.63.08-.86.25s-.39.39-.49.66-.14.56-.14.86c0,.38.06.71.17.99s.28.5.52.64.49.21.76.21c.33,0,.61-.1.84-.29.23-.19.39-.47.47-.85Z"/>
      <path class="cls-1" d="M122.9,90.73c0-.74.2-1.32.6-1.74.4-.42.91-.63,1.54-.63.41,0,.78.1,1.12.3.33.2.58.47.76.82.17.35.26.75.26,1.2s-.09.86-.27,1.22c-.18.36-.44.63-.78.81-.34.18-.7.28-1.08.28-.42,0-.8-.1-1.13-.3-.33-.2-.58-.48-.75-.83-.17-.35-.26-.72-.26-1.12ZM123.5,90.74c0,.54.14.96.43,1.27.29.31.65.46,1.09.46s.81-.16,1.1-.47c.29-.31.43-.76.43-1.33,0-.36-.06-.68-.18-.95s-.3-.48-.54-.63-.5-.22-.8-.22c-.42,0-.78.14-1.08.43-.3.29-.45.77-.45,1.44Z"/>
      <path class="cls-1" d="M127.84,92.91v-4.47h.61l2.35,3.51v-3.51h.57v4.47h-.61l-2.35-3.51v3.51h-.57Z"/>
      <path class="cls-1" d="M132.27,92.91v-4.47h.61l2.35,3.51v-3.51h.57v4.47h-.61l-2.35-3.51v3.51h-.57Z"/>
      <path class="cls-1" d="M136.71,92.91v-4.47h3.23v.53h-2.64v1.37h2.47v.52h-2.47v1.52h2.74v.53h-3.33Z"/>
      <path class="cls-1" d="M143.97,91.34l.59.15c-.12.49-.35.86-.67,1.11-.32.26-.72.38-1.18.38s-.87-.1-1.17-.29c-.3-.2-.53-.48-.69-.85s-.24-.77-.24-1.2c0-.47.09-.87.27-1.22.18-.35.43-.61.76-.79s.69-.27,1.08-.27c.45,0,.82.11,1.13.34.3.23.52.55.64.96l-.58.14c-.1-.32-.25-.56-.45-.71-.2-.15-.44-.22-.74-.22-.34,0-.63.08-.86.25s-.39.39-.49.66-.14.56-.14.86c0,.38.06.71.17.99s.28.5.52.64.49.21.76.21c.33,0,.61-.1.84-.29.23-.19.39-.47.47-.85Z"/>
      <path class="cls-1" d="M146.34,92.91v-3.94h-1.47v-.53h3.54v.53h-1.48v3.94h-.59Z"/>
      <path class="cls-1" d="M148.33,92.91v-.62h.62v.62h-.62Z"/>
      <path class="cls-1" d="M151.55,92.91v-4.47h1.54c.35,0,.61.02.8.06.26.06.47.17.66.32.24.2.41.45.53.76.12.31.18.66.18,1.06,0,.34-.04.64-.12.9s-.18.48-.3.65c-.12.17-.26.31-.41.41-.15.1-.32.17-.53.22-.21.05-.45.08-.72.08h-1.61ZM152.14,92.38h.95c.29,0,.53-.03.69-.08s.3-.13.4-.23c.14-.14.25-.33.33-.57.08-.24.12-.52.12-.86,0-.47-.08-.83-.23-1.08-.15-.25-.34-.42-.56-.5-.16-.06-.41-.09-.76-.09h-.94v3.41Z"/>
      <path class="cls-1" d="M155.99,92.91v-4.47h3.23v.53h-2.64v1.37h2.47v.52h-2.47v1.52h2.74v.53h-3.33Z"/>
      <path class="cls-1" d="M160.09,92.91v-4.47h3.01v.53h-2.42v1.38h2.1v.53h-2.1v2.03h-.59Z"/>
      <path class="cls-1" d="M163.89,92.91v-4.47h.59v4.47h-.59Z"/>
      <path class="cls-1" d="M165.44,92.91v-4.47h.61l2.35,3.51v-3.51h.57v4.47h-.61l-2.35-3.51v3.51h-.57Z"/>
      <path class="cls-1" d="M169.88,92.91v-4.47h3.23v.53h-2.64v1.37h2.47v.52h-2.47v1.52h2.74v.53h-3.33Z"/>
      <path class="cls-1" d="M174.04,92.91v-.62h.62v.62h-.62Z"/>
      <path class="cls-1" d="M176.42,92.91l1.72-4.47h.64l1.83,4.47h-.67l-.52-1.35h-1.87l-.49,1.35h-.63ZM177.71,91.07h1.51l-.47-1.24c-.14-.38-.25-.68-.32-.93-.06.29-.14.57-.24.85l-.49,1.31Z"/>
      <path class="cls-1" d="M180.97,92.91v-4.47h.59v3.94h2.2v.53h-2.79Z"/>
      <path class="cls-1" d="M184.48,92.91v-4.47h.59v4.47h-.59Z"/>
      <path class="cls-1" d="M188.13,91.16v-.52h1.89s0,1.65,0,1.65c-.29.23-.59.41-.9.52s-.63.18-.95.18c-.44,0-.84-.09-1.2-.28-.36-.19-.63-.46-.81-.82-.18-.36-.27-.75-.27-1.19s.09-.84.27-1.22c.18-.38.44-.66.78-.84s.73-.27,1.18-.27c.32,0,.62.05.88.16.26.1.47.25.61.44.15.19.26.43.34.73l-.53.15c-.07-.23-.15-.41-.25-.54-.1-.13-.24-.23-.43-.31-.18-.08-.39-.12-.62-.12-.27,0-.5.04-.7.12s-.36.19-.48.32-.21.28-.28.44c-.11.28-.17.58-.17.9,0,.4.07.73.21,1s.34.47.6.6c.26.13.54.2.83.2.26,0,.51-.05.75-.15.24-.1.43-.2.55-.32v-.83h-1.31Z"/>
      <path class="cls-1" d="M190.8,92.91v-4.47h.61l2.35,3.51v-3.51h.57v4.47h-.61l-2.35-3.51v3.51h-.57Z"/>
    </g>
    <path class="cls-2" d="M105.04,35.87v40.14c0,3.91-2.09,7.53-5.47,9.48l-34.76,20.07c-.13.07-.26.15-.4.22-2.35,1.23-5.04,1.55-7.56.96-1.04-.24-2.04-.64-2.99-1.18l-34.76-20.07c-3.39-1.96-5.48-5.57-5.48-9.48v-40.14c0-3.91,2.09-7.53,5.48-9.48l.65-.37,7.82-4.52,26.29-15.18c3.39-1.96,7.56-1.96,10.95,0l34.76,20.07c3.39,1.96,5.47,5.57,5.47,9.48Z"/>
    <g>
      <path class="cls-3" d="M47.33,54.45c-.19-1.16-.56-2.2-1.12-3.14-.88-1.61-2.09-2.83-3.62-3.67s-3.3-1.26-5.29-1.26c-1.32,0-2.55.17-3.7.5-1.15.33-2.19.84-3.14,1.51-.95.67-1.91,1.57-2.91,2.72v-29.61l-7.82,4.52v47.41c0,3.17,1.29,4.76,3.87,4.76,1.24,0,2.21-.4,2.91-1.22s1.05-1.99,1.05-3.54v-10.34c0-2.98.21-5.05.63-6.22.56-1.38,1.39-2.46,2.51-3.25,1.12-.79,2.37-1.19,3.77-1.19,2.08,0,3.5.67,4.24,2.02.74,1.35,1.12,3.27,1.12,5.77v13.21c0,3.17,1.29,4.76,3.87,4.76,1.18,0,2.14-.4,2.85-1.2.72-.8,1.07-1.99,1.07-3.55v-14.99c0-1.51-.1-2.84-.29-4Z"/>
      <path class="cls-3" d="M66.76,34.75c-2.58,0-4.61.33-6.09.99-1.48.66-2.53,1.71-3.15,3.15-.62,1.44-.93,3.39-.93,5.83v2.35h-1.86c-2.62,0-3.93.93-3.93,2.81,0,.84.32,1.52.94,2.05.63.52,1.53.79,2.69.79h2.15v20.71c0,.75.09,16.83.26,33.31,2.53.59,5.21.27,7.56-.96v-53.07h1.92c1.39,0,2.49-.17,3.28-.52.79-.34,1.19-1.16,1.19-2.43,0-1.8-1.49-2.69-4.47-2.69h-1.92v-1.86c0-1.55.2-2.74.6-3.57.4-.83,1.31-1.25,2.72-1.25.52,0,1.15.06,1.89.17.74.12,1.27.17,1.57.17.65,0,1.21-.26,1.69-.78.48-.52.72-1.13.72-1.86,0-2.23-2.28-3.35-6.85-3.35Z"/>
      <path class="cls-3" d="M98.89,64.14c-.79-1.12-1.96-2.09-3.49-2.91-1.54-.82-3.52-1.53-5.95-2.12-2.04-.5-3.65-.92-4.81-1.26-1.17-.34-2.09-.78-2.78-1.31-.69-.52-1.03-1.2-1.03-2.02,0-.9.46-1.64,1.4-2.25.93-.6,2.11-.9,3.52-.9s2.47.23,3.27.69c.8.46,1.5,1.07,2.1,1.84.72.92,1.37,1.6,1.93,2.06.56.46,1.24.69,2.05.69,1.11,0,1.96-.29,2.56-.86.6-.57.9-1.31.9-2.21,0-.82-.28-1.66-.85-2.52-.56-.86-1.38-1.64-2.46-2.35-1.08-.71-2.43-1.27-4.04-1.69-1.61-.42-3.43-.63-5.46-.63-2.58,0-4.78.41-6.6,1.25-1.83.83-3.21,1.95-4.14,3.34-.93,1.39-1.4,2.88-1.4,4.44,0,1.76.51,3.24,1.52,4.44,1.01,1.2,2.36,2.17,4.06,2.91,1.69.73,3.88,1.44,6.57,2.1,2.39.57,4.1,1.18,5.14,1.81,1.04.63,1.57,1.63,1.57,3.01,0,.9-.5,1.7-1.51,2.39s-2.29,1.05-3.86,1.05c-1.93,0-3.45-.34-4.57-1.03-1.11-.69-2.08-1.73-2.88-3.12-.4-.72-.82-1.29-1.26-1.69-.44-.4-1.07-.6-1.89-.6-.93,0-1.71.3-2.32.92-.61.61-.92,1.35-.92,2.21,0,1.3.48,2.59,1.44,3.88.95,1.29,2.43,2.36,4.44,3.22,2,.86,4.41,1.29,7.22,1.29s5.44-.39,7.49-1.19c2.05-.79,3.61-1.96,4.65-3.49,1.05-1.54,1.57-3.39,1.57-5.55,0-1.43-.39-2.71-1.19-3.82Z"/>
    </g>
    <g>
      <path class="cls-1" d="M121.5,36.56v3.63h5.54v-3.63c0-.52.12-.91.35-1.17s.54-.39.92-.39.7.13.94.38c.24.26.36.65.36,1.17v9.98c0,.52-.12.92-.36,1.18s-.55.39-.93.39-.69-.13-.92-.39c-.23-.26-.35-.65-.35-1.17v-4.26h-5.54v4.26c0,.52-.12.92-.36,1.18s-.55.39-.93.39-.69-.13-.92-.39c-.23-.26-.35-.65-.35-1.17v-9.98c0-.52.11-.91.34-1.17.23-.26.54-.39.93-.39s.7.13.94.38c.24.26.36.65.36,1.17Z"/>
      <path class="cls-1" d="M133.16,37.41c-.33,0-.61-.1-.84-.3-.23-.2-.35-.49-.35-.86,0-.33.12-.61.36-.83.24-.22.52-.32.83-.32s.58.1.81.29c.24.2.35.48.35.86s-.12.65-.35.85c-.23.2-.5.31-.82.31ZM134.33,39.85v6.82c0,.47-.11.83-.34,1.07s-.51.36-.86.36-.63-.12-.84-.37-.32-.6-.32-1.06v-6.75c0-.47.11-.82.32-1.05.22-.24.5-.35.84-.35s.63.12.86.35c.22.24.34.56.34.99Z"/>
      <path class="cls-1" d="M138.2,39.98l1.91,5.36,2.06-5.59c.16-.45.32-.77.48-.95.16-.19.39-.28.71-.28.3,0,.55.1.76.3.21.2.32.44.32.7,0,.1-.02.22-.06.36-.04.14-.08.27-.13.39-.05.12-.11.26-.17.41l-2.26,5.62c-.06.16-.15.37-.25.61-.1.25-.21.46-.34.64-.12.18-.28.31-.46.41s-.4.15-.66.15c-.33,0-.6-.08-.8-.23s-.35-.32-.44-.5-.25-.54-.48-1.08l-2.25-5.56c-.05-.14-.11-.28-.16-.41-.05-.14-.1-.28-.14-.42-.04-.14-.06-.27-.06-.37,0-.16.05-.32.15-.48.1-.16.23-.29.41-.39.17-.1.36-.15.56-.15.39,0,.66.11.81.34s.31.6.49,1.13Z"/>
      <path class="cls-1" d="M152.25,43.88h-4.61c0,.54.11,1.01.32,1.42.21.41.49.72.84.92.35.21.73.31,1.15.31.28,0,.54-.03.77-.1.23-.07.46-.17.68-.31.22-.14.42-.29.6-.45.18-.16.42-.38.72-.66.12-.1.29-.16.52-.16.24,0,.44.07.59.2.15.13.22.32.22.56,0,.21-.08.46-.25.75-.17.29-.42.56-.76.82-.34.26-.76.48-1.27.65s-1.1.26-1.76.26c-1.52,0-2.69-.43-3.53-1.3-.84-.86-1.26-2.04-1.26-3.52,0-.7.1-1.34.31-1.94s.51-1.11.91-1.53c.4-.43.89-.75,1.47-.98.58-.23,1.23-.34,1.94-.34.92,0,1.71.19,2.37.58.66.39,1.15.89,1.48,1.51.33.62.49,1.24.49,1.88,0,.59-.17.98-.51,1.15-.34.18-.82.26-1.43.26ZM147.64,42.54h4.28c-.06-.81-.28-1.41-.65-1.81-.38-.4-.87-.6-1.49-.6s-1.07.2-1.45.61c-.38.41-.61,1.01-.69,1.8Z"/>
      <path class="cls-1" d="M126.49,52.48h-5.06v3.24h4.23c.39,0,.68.09.88.26.19.18.29.41.29.7s-.1.53-.29.7c-.2.17-.49.26-.87.26h-4.23v4.17c0,.53-.12.92-.36,1.18-.24.26-.55.38-.92.38s-.69-.13-.93-.39c-.24-.26-.36-.65-.36-1.18v-9.75c0-.37.05-.67.16-.9.11-.23.28-.4.51-.51.23-.11.53-.16.89-.16h6.05c.41,0,.71.09.91.27s.3.42.3.71-.1.54-.3.72-.5.27-.91.27Z"/>
      <path class="cls-1" d="M135.34,62.05v-.3c-.28.36-.58.66-.89.9s-.65.42-1.02.54c-.37.12-.79.18-1.26.18-.57,0-1.08-.12-1.53-.35-.45-.24-.8-.56-1.05-.98-.29-.5-.44-1.22-.44-2.16v-4.67c0-.47.11-.83.32-1.06.21-.23.5-.35.85-.35s.64.12.86.35c.22.24.33.59.33,1.05v3.78c0,.55.05,1.01.14,1.38.09.37.26.66.5.87.24.21.56.32.97.32s.77-.12,1.12-.35c.35-.24.61-.54.77-.92.13-.33.2-1.07.2-2.19v-2.87c0-.47.11-.82.33-1.05.22-.24.5-.35.86-.35s.63.12.85.35c.21.23.32.59.32,1.06v6.84c0,.45-.1.79-.31,1.01-.2.22-.47.34-.79.34s-.59-.12-.8-.35c-.21-.23-.32-.56-.32-.98Z"/>
      <path class="cls-1" d="M142.02,59.98v1.97c0,.48-.11.84-.34,1.08s-.51.36-.86.36-.62-.12-.84-.36c-.22-.24-.33-.6-.33-1.07v-6.57c0-1.06.38-1.59,1.15-1.59.39,0,.67.12.85.37.17.25.27.61.29,1.1.28-.48.57-.85.87-1.1.3-.25.69-.37,1.19-.37s.98.12,1.44.37c.47.25.7.58.7.99,0,.29-.1.53-.3.71-.2.19-.41.28-.64.28-.09,0-.3-.05-.63-.16-.33-.11-.62-.16-.88-.16-.35,0-.63.09-.85.27-.22.18-.39.45-.51.81-.12.36-.2.78-.25,1.27-.05.49-.07,1.09-.07,1.8Z"/>
      <path class="cls-1" d="M149.34,55.1v.29c.41-.55.87-.95,1.36-1.21.49-.26,1.06-.38,1.7-.38s1.18.14,1.67.41c.49.27.86.65,1.1,1.15.16.29.26.6.3.93.05.33.07.76.07,1.28v4.39c0,.47-.11.83-.32,1.07s-.5.36-.84.36-.64-.12-.86-.37c-.22-.25-.33-.6-.33-1.06v-3.93c0-.78-.11-1.37-.32-1.78-.22-.41-.65-.62-1.29-.62-.42,0-.8.13-1.15.38s-.6.59-.76,1.03c-.12.35-.17,1.01-.17,1.97v2.96c0,.48-.11.84-.33,1.08-.22.24-.51.36-.86.36s-.62-.12-.84-.37c-.22-.25-.33-.6-.33-1.06v-6.82c0-.45.1-.78.29-1.01.2-.22.46-.33.8-.33.21,0,.39.05.56.15.17.1.3.24.4.44.1.2.15.44.15.72Z"/>
      <path class="cls-1" d="M158.85,52.7c-.33,0-.61-.1-.84-.3-.23-.2-.35-.49-.35-.86,0-.33.12-.61.36-.83.24-.22.52-.32.83-.32s.58.1.81.29c.24.2.35.48.35.86s-.12.65-.35.85c-.23.2-.5.31-.82.31ZM160.01,55.13v6.82c0,.47-.11.83-.34,1.07s-.51.36-.86.36-.63-.12-.84-.37-.32-.6-.32-1.06v-6.75c0-.47.11-.82.32-1.05.22-.24.5-.35.84-.35s.63.12.86.35c.22.24.34.56.34.99Z"/>
      <path class="cls-1" d="M162.35,54h.26v-1.42c0-.38,0-.68.03-.89.02-.22.08-.4.17-.56.09-.16.22-.29.4-.39.17-.1.37-.15.58-.15.3,0,.57.11.81.34.16.15.26.33.31.55s.06.52.06.92v1.61h.86c.33,0,.59.08.76.24.18.16.26.36.26.61,0,.32-.13.54-.38.67-.25.13-.61.19-1.08.19h-.44v4.34c0,.37.01.65.04.85s.1.36.21.48c.11.12.29.19.55.19.14,0,.33-.02.56-.07.24-.05.42-.07.55-.07.19,0,.36.08.51.23.15.15.23.34.23.57,0,.38-.21.67-.62.87s-1.01.3-1.79.3c-.74,0-1.3-.12-1.68-.37s-.63-.59-.75-1.03c-.12-.44-.18-1.02-.18-1.75v-4.53h-.31c-.34,0-.6-.08-.78-.24-.18-.16-.27-.37-.27-.61s.09-.45.28-.61c.19-.16.46-.24.82-.24Z"/>
      <path class="cls-1" d="M174.38,62.05v-.3c-.28.36-.58.66-.89.9s-.65.42-1.02.54c-.37.12-.79.18-1.26.18-.57,0-1.08-.12-1.53-.35-.45-.24-.8-.56-1.05-.98-.29-.5-.44-1.22-.44-2.16v-4.67c0-.47.11-.83.32-1.06.21-.23.5-.35.85-.35s.64.12.86.35c.22.24.33.59.33,1.05v3.78c0,.55.05,1.01.14,1.38.09.37.26.66.5.87.24.21.56.32.97.32s.77-.12,1.12-.35c.35-.24.61-.54.77-.92.13-.33.2-1.07.2-2.19v-2.87c0-.47.11-.82.33-1.05.22-.24.5-.35.86-.35s.63.12.85.35c.21.23.32.59.32,1.06v6.84c0,.45-.1.79-.31,1.01-.2.22-.47.34-.79.34s-.59-.12-.8-.35c-.21-.23-.32-.56-.32-.98Z"/>
      <path class="cls-1" d="M181.06,59.98v1.97c0,.48-.11.84-.34,1.08s-.51.36-.86.36-.62-.12-.84-.36c-.22-.24-.33-.6-.33-1.07v-6.57c0-1.06.38-1.59,1.15-1.59.39,0,.67.12.85.37.17.25.27.61.29,1.1.28-.48.57-.85.87-1.1.3-.25.69-.37,1.19-.37s.98.12,1.44.37c.47.25.7.58.7.99,0,.29-.1.53-.3.71-.2.19-.41.28-.64.28-.09,0-.3-.05-.63-.16-.33-.11-.62-.16-.88-.16-.35,0-.63.09-.85.27-.22.18-.39.45-.51.81-.12.36-.2.78-.25,1.27-.05.49-.07,1.09-.07,1.8Z"/>
      <path class="cls-1" d="M192.38,59.17h-4.61c0,.54.11,1.01.32,1.42.21.41.49.72.84.92.35.21.73.31,1.15.31.28,0,.54-.03.77-.1.23-.07.46-.17.68-.31.22-.14.42-.29.6-.45.18-.16.42-.38.72-.66.12-.1.29-.16.52-.16.24,0,.44.07.59.2.15.13.22.32.22.56,0,.21-.08.46-.25.75-.17.29-.42.56-.76.82-.34.26-.76.48-1.27.65s-1.1.26-1.76.26c-1.52,0-2.69-.43-3.53-1.3-.84-.86-1.26-2.04-1.26-3.52,0-.7.1-1.34.31-1.94s.51-1.11.91-1.53c.4-.43.89-.75,1.47-.98.58-.23,1.23-.34,1.94-.34.92,0,1.71.19,2.37.58.66.39,1.15.89,1.48,1.51.33.62.49,1.24.49,1.88,0,.59-.17.98-.51,1.15-.34.18-.82.26-1.43.26ZM187.76,57.83h4.28c-.06-.81-.28-1.41-.65-1.81-.38-.4-.87-.6-1.49-.6s-1.07.2-1.45.61c-.38.41-.61,1.01-.69,1.8Z"/>
      <path class="cls-1" d="M128.55,74.65c0,.77-.2,1.45-.59,2.07-.39.61-.97,1.09-1.73,1.43s-1.66.52-2.7.52c-1.25,0-2.28-.24-3.09-.71-.58-.34-1.04-.79-1.4-1.36-.36-.57-.54-1.12-.54-1.65,0-.31.11-.58.32-.8.22-.22.49-.33.83-.33.27,0,.5.09.69.26.19.17.35.43.48.77.16.4.34.74.52,1.01.19.27.45.49.79.67.34.18.79.26,1.34.26.76,0,1.38-.18,1.85-.53s.71-.8.71-1.33c0-.42-.13-.76-.38-1.02-.26-.26-.59-.46-.99-.6s-.95-.29-1.63-.44c-.91-.21-1.67-.46-2.29-.75s-1.1-.67-1.46-1.17c-.36-.49-.54-1.1-.54-1.84s.19-1.32.57-1.86c.38-.54.93-.96,1.65-1.25.72-.29,1.57-.44,2.54-.44.78,0,1.45.1,2.02.29.57.19,1.04.45,1.41.77.37.32.65.66.82,1.01.17.35.26.69.26,1.03,0,.31-.11.58-.32.83-.22.24-.49.37-.81.37-.29,0-.52-.07-.67-.22-.15-.15-.32-.39-.5-.72-.23-.48-.51-.85-.83-1.12-.32-.27-.84-.4-1.56-.4-.66,0-1.2.15-1.6.44-.41.29-.61.64-.61,1.05,0,.25.07.47.21.66.14.18.33.34.57.48.24.13.49.24.73.31.25.08.66.18,1.23.33.71.17,1.36.35,1.94.55.58.2,1.07.45,1.48.73.41.29.72.65.95,1.09.23.44.34.98.34,1.62Z"/>
      <path class="cls-1" d="M132.64,67v3.5c.3-.35.59-.62.88-.82.29-.2.6-.35.95-.45.35-.1.72-.15,1.11-.15.6,0,1.13.13,1.59.38.46.25.83.62,1.09,1.11.17.28.28.6.34.95.06.35.09.75.09,1.21v4.52c0,.47-.11.83-.32,1.07s-.5.36-.86.36c-.78,0-1.17-.48-1.17-1.43v-3.98c0-.75-.11-1.34-.34-1.74s-.65-.61-1.28-.61c-.42,0-.8.12-1.14.36-.34.24-.59.57-.76.98-.13.35-.19.98-.19,1.88v3.12c0,.47-.11.82-.32,1.07-.21.24-.5.37-.88.37-.78,0-1.17-.48-1.17-1.43v-10.23c0-.48.1-.84.31-1.08.2-.24.49-.36.86-.36s.67.12.88.36c.21.24.32.6.32,1.07Z"/>
      <path class="cls-1" d="M149.62,73.87c0,.7-.11,1.35-.33,1.94-.22.59-.54,1.1-.95,1.53-.41.43-.91.75-1.49.98-.58.23-1.22.34-1.94.34s-1.36-.12-1.93-.35-1.06-.56-1.48-.99c-.42-.43-.73-.94-.95-1.52-.22-.58-.32-1.23-.32-1.94s.11-1.37.33-1.96c.22-.59.53-1.1.94-1.52.41-.42.9-.74,1.49-.97.58-.23,1.22-.34,1.93-.34s1.36.12,1.94.35c.58.23,1.08.56,1.49.99.41.43.73.93.95,1.52s.32,1.24.32,1.94ZM147.25,73.87c0-.96-.21-1.71-.64-2.25s-.99-.8-1.71-.8c-.46,0-.87.12-1.22.36-.35.24-.62.59-.81,1.06s-.29,1.01-.29,1.63.09,1.16.28,1.62c.19.46.45.81.8,1.06.35.24.76.37,1.23.37.71,0,1.28-.27,1.71-.81.42-.54.64-1.28.64-2.23Z"/>
      <path class="cls-1" d="M152.72,70.55l1.54,5.27,1.4-4.9c.15-.51.26-.86.33-1.05.07-.19.21-.37.41-.54.2-.17.47-.25.82-.25s.63.09.83.25c.2.17.34.35.42.55.08.2.19.54.34,1.03l1.4,4.9,1.56-5.27c.1-.38.19-.66.25-.83.06-.17.17-.32.32-.45.15-.13.37-.19.65-.19s.53.1.73.29c.21.2.31.43.31.69,0,.24-.09.61-.27,1.1l-1.93,5.65c-.17.48-.3.82-.39,1.04-.09.21-.24.4-.44.57s-.47.25-.82.25-.64-.09-.84-.27c-.2-.18-.36-.4-.45-.66-.1-.26-.2-.6-.32-1.01l-1.35-4.6-1.3,4.6c-.17.64-.36,1.12-.56,1.45-.2.33-.56.49-1.06.49-.26,0-.48-.05-.66-.15s-.33-.24-.45-.43c-.12-.19-.23-.41-.32-.67-.09-.26-.16-.46-.22-.61l-1.91-5.65c-.19-.53-.29-.9-.29-1.1,0-.25.1-.48.3-.68.2-.2.45-.3.74-.3.39,0,.66.11.8.33.14.22.29.6.44,1.14Z"/>
    </g>
  </g>
  <g>
    <g>
      <path class="cls-2" d="M169.39,23.08c.37-3.05,1.59-5.17,3.19-6.61,2.18-1.94,5.01-2.54,7.36-2.47,2.63.08,4.85,1.08,6.45,2.62.94.9,1.67,1.99,2.16,3.18.48,1.19.72,2.48.68,3.81-.07,2.3-.98,4.69-2.91,6.74l-8.17,8.67c-2.51,2.66-5,5.3-7.52,7.94v-5.1l13.15-13.96c1.3-1.37,1.9-2.92,1.94-4.39.03-.83-.12-1.63-.42-2.37-.3-.73-.75-1.4-1.33-1.96-1.01-.97-2.42-1.6-4.13-1.66-1.62-.05-3.53.33-4.94,1.59-.94.84-1.68,2.11-1.98,3.96h-3.54Z"/>
      <path class="cls-2" d="M198.93,55.56v-8.42h-22.21c8.55-9.49,17.18-18.9,25.78-28.35v5.35l-17.64,19.38h14.1v-3.98l3.54-3.16c0,6.29.03,12.9.03,19.18h-3.6Z"/>
    </g>
    <g>
      <path class="cls-1" d="M209.56,44.14v-1.18h-1.97v-.98l2.08-3.71h.78v3.71h.59v.99h-.59v1.18h-.89ZM209.56,41.98v-2l-1.1,2h1.1Z"/>
      <path class="cls-1" d="M212.69,44.14v-4.87h-1.43v-.99h3.82v.99h-1.42v4.87h-.97Z"/>
      <path class="cls-1" d="M215.63,44.14v-5.86h.97v2.3h1.91v-2.3h.97v5.86h-.97v-2.56h-1.91v2.56h-.97Z"/>
      <path class="cls-1" d="M207.96,53.96v-5.86h3.56v.99h-2.6v1.3h2.41v.99h-2.41v1.59h2.68v.99h-3.65Z"/>
      <path class="cls-1" d="M212.35,48.1h1.77c.45,0,.78.05,1.01.15.23.1.44.27.63.51s.34.54.45.92c.11.38.16.85.16,1.41,0,.51-.06.95-.17,1.32-.11.37-.26.67-.44.89-.18.22-.39.38-.64.49-.25.11-.57.17-.96.17h-1.82v-5.86ZM213.32,49.09v3.88h.73c.31,0,.54-.03.68-.09.14-.06.25-.15.34-.27s.16-.31.22-.56c.06-.26.09-.59.09-1.01s-.03-.78-.09-1.03c-.06-.25-.15-.45-.28-.59-.13-.14-.28-.24-.46-.28-.14-.03-.4-.05-.79-.05h-.44Z"/>
      <path class="cls-1" d="M217.08,53.96v-5.86h.97v5.86h-.97Z"/>
      <path class="cls-1" d="M219.98,53.96v-4.87h-1.43v-.99h3.82v.99h-1.42v4.87h-.97Z"/>
      <path class="cls-1" d="M222.89,53.96v-5.86h.97v5.86h-.97Z"/>
      <path class="cls-1" d="M224.5,51.07c0-.7.1-1.27.31-1.72.21-.45.48-.79.81-1.01.33-.22.74-.33,1.21-.33.69,0,1.25.26,1.68.79.43.52.65,1.27.65,2.24s-.23,1.75-.69,2.3c-.4.49-.95.73-1.64.73s-1.24-.24-1.65-.72c-.46-.55-.69-1.31-.69-2.27ZM225.5,51.03c0,.67.13,1.18.38,1.52.26.34.57.51.95.51s.7-.17.95-.5c.25-.33.38-.85.38-1.54s-.12-1.18-.37-1.51-.56-.49-.96-.49-.72.16-.96.49c-.25.33-.37.83-.37,1.52Z"/>
      <path class="cls-1" d="M229.85,53.96v-5.86h.94l1.97,3.91v-3.91h.9v5.86h-.97l-1.93-3.82v3.82h-.9Z"/>
    </g>
  </g>
</svg>